<svg id="bloodBank" xmlns="http://www.w3.org/2000/svg" width="12.807" height="17.61" viewBox="0 0 12.807 17.61">
  <g transform="translate(-8 -5)">
    <path id="Path_47" data-name="Path 47" d="M14.4,5C10.553,5,8,13,8,16.206a6.4,6.4,0,0,0,12.807,0C20.807,13,18.254,5,14.4,5Zm0,16.009a4.8,4.8,0,0,1-4.8-4.8c0-2.938,2.465-9.605,4.8-9.605s4.8,6.668,4.8,9.605a4.8,4.8,0,0,1-4.8,4.8Z" />
    <path id="Path_48" data-name="Path 48" d="M17.6,16.4H16V14.8a.8.8,0,1,0-1.6,0v1.6H12.8a.8.8,0,0,0,0,1.6h1.6v1.6a.8.8,0,0,0,1.6,0V18h1.6a.8.8,0,0,0,0-1.6Z" transform="translate(-0.798 -1.796)" />
  </g>
</svg>
