<svg xmlns="http://www.w3.org/2000/svg" width="11.884" height="16.34" viewBox="0 0 11.884 16.34">
  <g id="bloodBankSuccess" transform="translate(-8 -5)">
    <path id="Path_47" data-name="Path 47" d="M13.942,5C10.369,5,8,12.427,8,15.4a5.942,5.942,0,0,0,11.884,0C19.884,12.427,17.514,5,13.942,5Zm0,14.854A4.456,4.456,0,0,1,9.485,15.4c0-2.726,2.288-8.913,4.456-8.913S18.4,12.672,18.4,15.4a4.456,4.456,0,0,1-4.456,4.456Z" fill="#2c8073"/>
    <path id="Path_48" data-name="Path 48" d="M17.2,16.228H15.714V14.743a.743.743,0,1,0-1.485,0v1.485H12.743a.743.743,0,0,0,0,1.485h1.485V19.2a.743.743,0,0,0,1.485,0V17.714H17.2a.743.743,0,0,0,0-1.485Z" transform="translate(-1.029 -2.316)" fill="#2c8073"/>
  </g>
</svg>
