<svg id="check-btn-muted" xmlns="http://www.w3.org/2000/svg" width="19.535" height="19.535" viewBox="0 0 19.535 19.535">
  <path id="Path_32" data-name="Path 32" d="M11.767,2a9.767,9.767,0,1,0,9.767,9.767A9.767,9.767,0,0,0,11.767,2Zm0,18.14a8.372,8.372,0,1,1,8.372-8.372A8.372,8.372,0,0,1,11.767,20.14Z" transform="translate(-2 -2)" fill="#a4a9ac"/>
  <path id="Path_33" data-name="Path 33" d="M18.563,9.2a.7.7,0,0,0-.991,0l-3.691,3.7L10.191,9.2a.7.7,0,0,0-.991.991l3.7,3.691L9.2,17.573a.7.7,0,1,0,.991.991l3.691-3.7,3.691,3.7a.7.7,0,1,0,.991-.991l-3.7-3.691,3.7-3.691a.7.7,0,0,0,0-.991Z" transform="translate(-4.115 -4.115)" fill="#a4a9ac"/>
</svg>
