<svg id="diagnosis-report" xmlns="http://www.w3.org/2000/svg" width="12.728" height="17.294" viewBox="0 0 12.728 17.294">
  <g  transform="translate(-9.92 -2)">
    <path id="Path_44" data-name="Path 44" d="M24.975,25.657h1.092v1.092a.545.545,0,1,0,1.09,0V25.657h1.092a.545.545,0,1,0,0-1.09H27.157V23.475a.545.545,0,1,0-1.09,0v1.092H24.975a.545.545,0,1,0,0,1.09Z" transform="translate(-10.328 -14.897)"/>
    <path id="Path_45" data-name="Path 45" d="M20.513,4.049H18.688A2.214,2.214,0,0,0,16.486,2h-.4a2.214,2.214,0,0,0-2.2,2.049H12.056A2.136,2.136,0,0,0,9.92,6.182V17.158a2.136,2.136,0,0,0,2.136,2.136h8.457a2.136,2.136,0,0,0,2.136-2.136V6.182A2.136,2.136,0,0,0,20.513,4.049Zm-4.43-.957h.4a1.124,1.124,0,0,1,1.107.957H14.976A1.124,1.124,0,0,1,16.082,3.092ZM14.419,5.139h5.188a1.507,1.507,0,0,1-1.4.957H14.359a1.507,1.507,0,0,1-1.4-.957Zm7.137,12.019A1.043,1.043,0,0,1,20.513,18.2H12.056a1.043,1.043,0,0,1-1.043-1.043V6.182a1.043,1.043,0,0,1,.816-1.012,2.594,2.594,0,0,0,2.531,2.018H18.21A2.594,2.594,0,0,0,20.74,5.171a1.043,1.043,0,0,1,.816,1.017Z"/>
    <path id="Path_46" data-name="Path 46" d="M26.259,41H20.42a.548.548,0,1,0,0,1.092h5.84a.548.548,0,1,0,0-1.092Zm0,3.1H20.42a.548.548,0,1,0,0,1.092h5.84a.548.548,0,1,0,0-1.092Z" transform="translate(-7.055 -27.755)"/>
  </g>
</svg>
