<svg id="disease" xmlns="http://www.w3.org/2000/svg" width="19.767" height="19.767" viewBox="0 0 19.767 19.767">
  <g transform="translate(-664.5 63.5)">
    <path id="Path_56" data-name="Path 56" d="M17.03,7.674a1.749,1.749,0,0,0-1.389.685l-1.525.727a4.722,4.722,0,0,0-1.178-2.838l1.595-.565A1.749,1.749,0,0,0,16,5.185a1.71,1.71,0,1,0-2.417-2.417,1.749,1.749,0,0,0-.5,1.467l-.565,1.595A4.722,4.722,0,0,0,9.681,4.651l.727-1.525a1.749,1.749,0,0,0,.685-1.389,1.71,1.71,0,1,0-3.419,0,1.749,1.749,0,0,0,.685,1.389l.727,1.525A4.722,4.722,0,0,0,6.248,5.829L5.683,4.234a1.749,1.749,0,0,0-.5-1.467A1.71,1.71,0,1,0,2.768,5.185a1.749,1.749,0,0,0,1.467.5l1.595.565A4.722,4.722,0,0,0,4.651,9.086L3.126,8.359a1.749,1.749,0,0,0-1.389-.685,1.71,1.71,0,1,0,0,3.419,1.749,1.749,0,0,0,1.389-.685l1.525-.727a4.722,4.722,0,0,0,1.178,2.838l-1.595.565a1.749,1.749,0,0,0-1.467.5A1.71,1.71,0,1,0,5.185,16a1.749,1.749,0,0,0,.5-1.467l.565-1.595a4.722,4.722,0,0,0,2.838,1.178l-.727,1.525a1.749,1.749,0,0,0-.685,1.389,1.71,1.71,0,1,0,3.419,0,1.749,1.749,0,0,0-.685-1.389l-.727-1.525a4.722,4.722,0,0,0,2.838-1.178l.565,1.595a1.749,1.749,0,0,0,.5,1.467A1.71,1.71,0,1,0,16,13.582a1.749,1.749,0,0,0-1.467-.5l-1.595-.565a4.722,4.722,0,0,0,1.178-2.838l1.525.727a1.749,1.749,0,0,0,1.389.685,1.71,1.71,0,1,0,0-3.419ZM13.478,4.321a.2.2,0,0,0,.009-.1,1.346,1.346,0,0,1,.378-1.17,1.309,1.309,0,1,1,1.85,1.85,1.346,1.346,0,0,1-1.17.378.2.2,0,0,0-.1.009l-1.5.531.531-1.5ZM8.635,2.831a1.346,1.346,0,0,1-.56-1.095,1.309,1.309,0,1,1,2.617,0,1.346,1.346,0,0,1-.56,1.095.2.2,0,0,0-.064.077L9.383,4.343,8.7,2.908a.2.2,0,0,0-.064-.077ZM4.321,5.289a.2.2,0,0,0-.1-.009A1.346,1.346,0,0,1,3.051,4.9,1.309,1.309,0,1,1,4.9,3.051a1.346,1.346,0,0,1,.378,1.17.2.2,0,0,0,.009.1l.531,1.5-1.5-.531ZM2.908,10.068a.2.2,0,0,0-.077.064,1.346,1.346,0,0,1-1.095.56,1.309,1.309,0,1,1,0-2.617,1.346,1.346,0,0,1,1.095.56.2.2,0,0,0,.077.064l1.435.684Zm2.38,4.378a.2.2,0,0,0-.009.1,1.346,1.346,0,0,1-.378,1.17,1.309,1.309,0,1,1-1.85-1.85,1.346,1.346,0,0,1,1.17-.378.2.2,0,0,0,.1-.009l1.5-.531-.531,1.5Zm4.843,1.489a1.346,1.346,0,0,1,.56,1.095,1.309,1.309,0,1,1-2.617,0,1.346,1.346,0,0,1,.56-1.095.2.2,0,0,0,.064-.077l.684-1.435.684,1.435a.2.2,0,0,0,.064.077Zm4.314-2.457a.2.2,0,0,0,.1.009,1.346,1.346,0,0,1,1.17.378,1.309,1.309,0,1,1-1.85,1.85,1.346,1.346,0,0,1-.378-1.17.2.2,0,0,0-.009-.1l-.531-1.5,1.5.531Zm-5.062.246a4.341,4.341,0,1,1,4.341-4.341A4.346,4.346,0,0,1,9.383,13.724Zm7.647-3.032a1.346,1.346,0,0,1-1.095-.56.2.2,0,0,0-.077-.064l-1.435-.684L15.858,8.7a.2.2,0,0,0,.077-.064,1.346,1.346,0,0,1,1.095-.56,1.309,1.309,0,1,1,0,2.617Z" transform="translate(665 -63)" stroke-width="1"/>
  </g>
</svg>
