<svg xmlns="http://www.w3.org/2000/svg" width="7.021" height="9.259" viewBox="0 0 7.021 9.259">
  <path id="donate-success" d="M9.13,13.852a3.5,3.5,0,0,0,4.7,0,3.526,3.526,0,0,0,.5-4.667L11.778,5.648a.37.37,0,0,0-.593,0L8.63,9.185A3.526,3.526,0,0,0,9.13,13.852ZM9.222,9.63,11.481,6.5l2.259,3.13a2.777,2.777,0,1,1-4.519,0ZM10,11.056a.371.371,0,0,1,.37-.37h.741V9.944a.37.37,0,1,1,.741,0v.741h.741a.37.37,0,0,1,0,.741h-.741v.741a.37.37,0,0,1-.741,0v-.741H10.37A.371.371,0,0,1,10,11.056Z" transform="translate(-7.971 -5.5)" fill="#ffd66b"/>
</svg>
