<svg id="download-btn" xmlns="http://www.w3.org/2000/svg" width="14.37" height="14.37" viewBox="0 0 14.37 14.37">
  <path id="download-btn" d="M15.651,10.622a.718.718,0,0,0-.718.718v2.874a.718.718,0,0,1-.718.718H4.155a.718.718,0,0,1-.718-.718V11.34A.718.718,0,0,0,2,11.34v2.874A2.155,2.155,0,0,0,4.155,16.37H14.214a2.155,2.155,0,0,0,2.155-2.155V11.34A.718.718,0,0,0,15.651,10.622ZM8.675,11.851A.718.718,0,0,0,8.912,12a.675.675,0,0,0,.546,0,.718.718,0,0,0,.237-.151l2.874-2.874a.721.721,0,1,0-1.02-1.02L9.9,9.609V2.718a.718.718,0,1,0-1.437,0v6.89L6.821,7.956A.721.721,0,0,0,5.8,8.977Z" transform="translate(-2 -2)"/>
</svg>
