<svg xmlns="http://www.w3.org/2000/svg" width="24" height="24" viewBox="0 0 24 24">
  <g id="follow" transform="translate(-263 -385)">
    <g id="Rectangle_86" data-name="Rectangle 86" transform="translate(263 385)" fill="#fff" stroke="#e6e8ea" stroke-width="1">
      <rect width="24" height="24" rx="3" stroke="none"/>
      <rect x="0.5" y="0.5" width="23" height="23" rx="2.5" fill="none"/>
    </g>
    <path id="ee47538cf3b5865ca347bca87575e6bd" d="M13.412,2.157h-1.1a1.078,1.078,0,0,0-1.056-.863h-.216a1.294,1.294,0,1,0-2.588,0H8.235a1.078,1.078,0,0,0-1.056.863h-1.1A1.078,1.078,0,0,0,5,3.235v9.49A1.078,1.078,0,0,0,6.078,13.8h7.333a1.078,1.078,0,0,0,1.078-1.078V3.235A1.078,1.078,0,0,0,13.412,2.157ZM8.235,1.725h.431a.216.216,0,0,0,.216-.216V1.294a.863.863,0,0,1,1.725,0V1.51a.216.216,0,0,0,.216.216h.431a.647.647,0,0,1,0,1.294H8.235a.647.647,0,1,1,0-1.294Zm5.824,11a.647.647,0,0,1-.647.647H6.078a.647.647,0,0,1-.647-.647V3.235a.647.647,0,0,1,.647-.647h1.1a1.078,1.078,0,0,0,1.056.863h3.02a1.078,1.078,0,0,0,1.056-.863h1.1a.647.647,0,0,1,.647.647Zm-7.118-4.1H8.667a.647.647,0,0,0,.647-.647V7.549a.216.216,0,1,0-.431,0V7.98a.216.216,0,0,1-.216.216H6.941a.216.216,0,0,1-.216-.216V6.255a.216.216,0,0,1,.216-.216H8.667a.216.216,0,0,0,0-.431H6.941a.647.647,0,0,0-.647.647V7.98A.647.647,0,0,0,6.941,8.627ZM9.392,5.887,8.02,7.259l-.51-.51a.216.216,0,1,0-.305.305l.663.662a.216.216,0,0,0,.3,0L9.7,6.192a.216.216,0,1,0-.305-.305ZM9.1,11.216a.216.216,0,0,0-.216.216v.431a.216.216,0,0,1-.216.216H6.941a.216.216,0,0,1-.216-.216V10.137a.216.216,0,0,1,.216-.216H8.667a.216.216,0,0,0,0-.431H6.941a.647.647,0,0,0-.647.647v1.725a.647.647,0,0,0,.647.647H8.667a.647.647,0,0,0,.647-.647v-.431A.216.216,0,0,0,9.1,11.216Zm.294-1.447L8.02,11.142l-.51-.51a.216.216,0,1,0-.305.305l.663.662a.216.216,0,0,0,.3,0L9.7,10.074a.216.216,0,1,0-.305-.305ZM8.235,4.745h2.588a.216.216,0,1,0,0-.431H8.235a.216.216,0,0,0,0,.431ZM12.98,6.471H10.392a.216.216,0,1,0,0,.431H12.98a.216.216,0,0,0,0-.431Zm0,.863H10.392a.216.216,0,1,0,0,.431H12.98a.216.216,0,0,0,0-.431Zm0,3.02H10.392a.216.216,0,1,0,0,.431H12.98a.216.216,0,0,0,0-.431Zm0,.863H10.392a.216.216,0,1,0,0,.431H12.98a.216.216,0,1,0,0-.431Z" transform="translate(265 390)" fill="#2c8073" stroke="#2c8073" stroke-width="0.3"/>
  </g>
</svg>
