<svg xmlns="http://www.w3.org/2000/svg" width="72.799" height="58.235" viewBox="0 0 72.799 58.235">
  <path id="grapg-light" d="M71.159,29.477H56.818a2.839,2.839,0,0,0-.764,0h-.619a4.731,4.731,0,0,0-.546.364,6.078,6.078,0,0,0-.582.437,3.639,3.639,0,0,0-.328.473,4.8,4.8,0,0,0-.437.728h0L47.718,47.531,32.539,6.4a3.64,3.64,0,0,0-6.843,0L17.288,29.477H5.64a3.64,3.64,0,1,0,0,7.28H21.292a3.131,3.131,0,0,0,.582-.364,6.079,6.079,0,0,0,.582-.437l.328-.473a3.64,3.64,0,0,0,.437-.728h0l5.9-16.489L44.26,59.834a3.64,3.64,0,0,0,3.422,2.4h0a3.64,3.64,0,0,0,3.422-2.4l8.372-23.077H71.159a3.64,3.64,0,0,0,0-7.28Z" transform="translate(-2 -4.001)" fill="#f8f8f8"/>
</svg>
