<svg id="hospital-success" xmlns="http://www.w3.org/2000/svg" width="12.108" height="12.108" viewBox="0 0 12.108 12.108">
  <g id="hospital-success" transform="translate(-2 -2)">
    <path id="Path_17" data-name="Path 17" d="M13.676,13.244h-1.3V4.595a.432.432,0,0,0-.432-.432h-1.3V2.432A.432.432,0,0,0,10.216,2H5.892a.432.432,0,0,0-.432.432v1.73h-1.3a.432.432,0,0,0-.432.432v8.649h-1.3a.432.432,0,1,0,0,.865H13.676a.432.432,0,0,0,0-.865ZM6.324,2.865h3.46v3.46H6.324Zm.432,10.379V8.919h.865v4.324Zm1.73,0V8.919h.865v4.324Zm1.73,0V8.487a.432.432,0,0,0-.432-.432H6.324a.432.432,0,0,0-.432.432v4.757h-1.3V5.027H5.46v1.73a.432.432,0,0,0,.432.432h4.324a.432.432,0,0,0,.432-.432V5.027h.865v8.216Z" fill="#2c8073"/>
    <path id="Path_18" data-name="Path 18" d="M13.432,6.73h.432v.432a.432.432,0,1,0,.865,0V6.73h.432a.432.432,0,0,0,0-.865H14.73V5.432a.432.432,0,1,0-.865,0v.432h-.432a.432.432,0,1,0,0,.865Z" transform="translate(-6.243 -1.703)" fill="#2c8073"/>
  </g>
</svg>
