<svg id="manageMed" xmlns="http://www.w3.org/2000/svg" width="16.216" height="17" viewBox="0 0 16.216 17">
  <g transform="translate(-3.75 -2.75)">
    <path id="Path_49" data-name="Path 49" d="M7.536,19.5a3.542,3.542,0,0,0,3.123-1.882,5.1,5.1,0,0,0,3.229,1.831,4.955,4.955,0,0,0,.719.051,5.107,5.107,0,0,0,4.922-3.752,4.512,4.512,0,0,0,.134-.625,4.631,4.631,0,0,0,.051-.644v-.008h0a5.1,5.1,0,0,0-8.643-3.76V6.536A3.536,3.536,0,0,0,4,6.536v9.429A3.541,3.541,0,0,0,7.536,19.5Zm3.536-7.582a4.317,4.317,0,0,1,7.841,2.1l-7.841-1.124Zm0,1.768,7.837,1.124c-.008.067-.012.13-.024.2s-.02.13-.031.193l-7.783-1.116Zm0,2.279V14.876L18.63,15.96a4.307,4.307,0,0,1-7.645.77A3.522,3.522,0,0,0,11.071,15.964ZM4.786,6.536a2.75,2.75,0,0,1,5.5,0v4.321h-5.5Zm0,5.107h5.5v4.321a2.75,2.75,0,0,1-5.5,0Z" transform="translate(0 0)" stroke-width="0.5"/>
    <path id="Path_50" data-name="Path 50" d="M12.393,6a.393.393,0,0,0,0,.786,1.571,1.571,0,0,1,1.571,1.571v2.357a.393.393,0,0,0,.786,0V8.357A2.359,2.359,0,0,0,12.393,6Z" transform="translate(-4.857 -1.821)" stroke-width="0.5"/>
  </g>
</svg>
