<svg id="manageDoner" xmlns="http://www.w3.org/2000/svg" width="17.167" height="17" viewBox="0 0 17.167 17">
  <path d="M20.556,14.574H18.13a4.828,4.828,0,0,0-2.815.963l-.426.333H11.481a1.288,1.288,0,0,0-1.3,1.3,1.118,1.118,0,0,0,.13.556.977.977,0,0,1-.463-.148l-2.611-1.5a1.4,1.4,0,0,0-1.444-.13,1.421,1.421,0,0,0-.259,2.389l.019.019,4.963,3.333A1.9,1.9,0,0,0,11.556,22h4.333a1.907,1.907,0,0,0,.944-.259l2.278-1.333a1.112,1.112,0,0,0,1.074.852h.37a1.114,1.114,0,0,0,1.111-1.111V15.7A1.118,1.118,0,0,0,20.556,14.574Zm-1.481,4.981-2.611,1.537a1.187,1.187,0,0,1-.556.148H11.556a1.183,1.183,0,0,1-.611-.185L5.981,17.741a.689.689,0,0,1-.241-.519.66.66,0,0,1,.37-.593.652.652,0,0,1,.7.074.04.04,0,0,1,.037.037l2.63,1.5a1.773,1.773,0,0,0,.926.241h5.7a.371.371,0,0,0,.37-.37.442.442,0,0,0-.093-.259.377.377,0,0,0-.278-.111h-4.63a.557.557,0,0,1-.556-.556.546.546,0,0,1,.556-.556H15a.323.323,0,0,0,.222-.074l.537-.407a3.923,3.923,0,0,1,2.389-.815h.926v4.222Zm1.852.574a.371.371,0,0,1-.37.37h-.37a.371.371,0,0,1-.37-.37V15.315h.741a.371.371,0,0,1,.37.37ZM9.13,13.852a3.5,3.5,0,0,0,4.7,0,3.526,3.526,0,0,0,.5-4.667L11.778,5.648a.37.37,0,0,0-.593,0L8.63,9.185A3.526,3.526,0,0,0,9.13,13.852ZM9.222,9.63,11.481,6.5l2.259,3.13a2.777,2.777,0,1,1-4.519,0ZM10,11.056a.371.371,0,0,1,.37-.37h.741V9.944a.37.37,0,1,1,.741,0v.741h.741a.37.37,0,0,1,0,.741h-.741v.741a.37.37,0,0,1-.741,0v-.741H10.37A.371.371,0,0,1,10,11.056Z" transform="translate(-4.75 -5.25)" stroke-width="0.5"/>
</svg>
