<svg xmlns="http://www.w3.org/2000/svg" width="24" height="24" viewBox="0 0 24 24">
  <g id="operations" transform="translate(-263 -505)">
    <g id="Rectangle_90" data-name="Rectangle 90" transform="translate(263 505)" fill="#fff" stroke="#e6e8ea" stroke-width="1">
      <rect width="24" height="24" rx="3" stroke="none"/>
      <rect x="0.5" y="0.5" width="23" height="23" rx="2.5" fill="none"/>
    </g>
    <g id="_6cd077e43a11f6ffb949833195db79e5" data-name="6cd077e43a11f6ffb949833195db79e5" transform="translate(265.199 505.426)">
      <rect id="Rectangle_103" data-name="Rectangle 103" width="0.455" height="0.47" transform="translate(10.589 8.19)" fill="#2c8073" stroke="#2c8073" stroke-width="0.3"/>
      <path id="Path_25" data-name="Path 25" d="M31,7.265V8.34A.925.925,0,0,0,31.273,9l.043.043a.474.474,0,0,1,.139.337V9.9A.908.908,0,0,0,31,10.68v5.807a.8.8,0,0,0,.8.8h.228a.8.8,0,0,0,.8-.8V9.115h-.455V9.77h-.455V9.378a.926.926,0,0,0-.273-.659l-.043-.043a.473.473,0,0,1-.139-.336V7.265a1.14,1.14,0,0,1,.911-1.116V7.734h.455V5.671h-.228A1.6,1.6,0,0,0,31,7.265Zm1.366,9.222a.342.342,0,0,1-.342.342H31.8a.342.342,0,0,1-.342-.342V11.364h.911Zm0-6.262v.683h-.911V10.68a.455.455,0,0,1,.455-.455Zm5.7,4.534a2.137,2.137,0,0,0-.513-1.271,3.061,3.061,0,0,0-.373-.352,1.223,1.223,0,0,1-.29-.3,1.479,1.479,0,0,1-.191-.989.217.217,0,0,0-.005-.057V10.507L36.7,10.5,36.03,5.788a.25.25,0,0,0-.5,0l-.656,4.6a.265.265,0,0,0,0,.04.226.226,0,0,0-.009.046V11.8c0,.007,0,.013,0,.019a.183.183,0,0,0,0,.027,1.48,1.48,0,0,1-.191.989,1.225,1.225,0,0,1-.288.3,3.06,3.06,0,0,0-.373.352A2.137,2.137,0,0,0,33.5,14.76a2.462,2.462,0,0,0,.247,1.249,3.135,3.135,0,0,0,.983,1.23.228.228,0,1,0,.273-.364,2.678,2.678,0,0,1-.84-1.047A2.024,2.024,0,0,1,33.96,14.8a1.688,1.688,0,0,1,.4-1.006,2.588,2.588,0,0,1,.323-.3,1.653,1.653,0,0,0,.38-.405,1.808,1.808,0,0,0,.277-1.037h.893a1.807,1.807,0,0,0,.279,1.036,1.655,1.655,0,0,0,.38.405,2.588,2.588,0,0,1,.323.3,1.686,1.686,0,0,1,.4,1.006,2.024,2.024,0,0,1-.209,1.027,2.677,2.677,0,0,1-.84,1.047.228.228,0,0,0,.273.364,3.135,3.135,0,0,0,.982-1.23A2.463,2.463,0,0,0,38.065,14.759ZM35.327,10.68h.911v.911h-.911Zm.455-3.4.421,2.948h-.841Z" transform="translate(-21.777)" fill="#2c8073" stroke="#2c8073" stroke-width="0.3"/>
      <rect id="Rectangle_104" data-name="Rectangle 104" width="0.455" height="0.455" transform="translate(13.777 10.908)" fill="#2c8073" stroke="#2c8073" stroke-width="0.3"/>
      <path id="Path_26" data-name="Path 26" d="M7.168,15.415a1.126,1.126,0,0,0-.624.364L5.9,12.555,7.16,6.261a.228.228,0,1,0-.447-.089L5.666,11.4,4.618,6.171a.228.228,0,1,0-.447.089l1.261,6.295-.646,3.222a1.134,1.134,0,1,0,.27.977l.609-3.04.609,3.04a1.141,1.141,0,0,0,1.116.915,1.12,1.12,0,0,0,.224-.023,1.139,1.139,0,1,0-.447-2.232ZM4.32,17.1a.683.683,0,1,1,.291-.434.677.677,0,0,1-.291.434Zm3.206.1a.683.683,0,1,1,.535-.8.683.683,0,0,1-.535.8Z" transform="translate(0 -0.32)" fill="#2c8073" stroke="#2c8073" stroke-width="0.3"/>
    </g>
  </g>
</svg>
