<svg xmlns="http://www.w3.org/2000/svg" width="11.449" height="14.312" viewBox="0 0 11.449 14.312">
  <path id="_96275989310108aacb25c9bf9099fad5" data-name="96275989310108aacb25c9bf9099fad5" d="M15.449,6.966a.937.937,0,0,0-.043-.193V6.708a.766.766,0,0,0-.136-.2h0L10.977,2.215h0a.766.766,0,0,0-.2-.136H10.7A.787.787,0,0,0,10.483,2H6.147A2.147,2.147,0,0,0,4,4.147V14.165a2.147,2.147,0,0,0,2.147,2.147H13.3a2.147,2.147,0,0,0,2.147-2.147v-7.2ZM11.156,4.44l1.853,1.853H11.871a.716.716,0,0,1-.716-.716Zm2.862,9.725a.716.716,0,0,1-.716.716H6.147a.716.716,0,0,1-.716-.716V4.147a.716.716,0,0,1,.716-.716H9.725V5.578a2.147,2.147,0,0,0,2.147,2.147h2.147Zm-3.37-3.37-.208.215V9.156a.716.716,0,0,0-1.431,0v1.853L8.8,10.794a.719.719,0,0,0-1.016,1.016l1.431,1.431a.716.716,0,0,0,.236.15.673.673,0,0,0,.544,0,.716.716,0,0,0,.236-.15l1.431-1.431a.719.719,0,0,0-1.016-1.016Z" transform="translate(-4 -2)" fill="#61656a"/>
</svg>
