<svg id="print-btn" xmlns="http://www.w3.org/2000/svg" width="13.331" height="13.331" viewBox="0 0 13.331 13.331">
  <path id="print" d="M5.333,7.332A.667.667,0,1,0,6,8,.667.667,0,0,0,5.333,7.332Zm8-2.666h-.667v-2A.667.667,0,0,0,12,2H5.333a.667.667,0,0,0-.667.667v2H4a2,2,0,0,0-2,2v4a2,2,0,0,0,2,2h.667v2a.667.667,0,0,0,.667.667H12a.667.667,0,0,0,.667-.667v-2h.667a2,2,0,0,0,2-2v-4A2,2,0,0,0,13.331,4.666ZM6,3.333h5.332V4.666H6ZM11.332,14H6V11.332h5.332ZM14,10.665a.667.667,0,0,1-.667.667h-.667v-.667A.667.667,0,0,0,12,10H5.333a.667.667,0,0,0-.667.667v.667H4a.667.667,0,0,1-.667-.667v-4A.667.667,0,0,1,4,6h9.332A.667.667,0,0,1,14,6.666Z" transform="translate(-2 -2)"/>
</svg>
