<svg id="profile" xmlns="http://www.w3.org/2000/svg" width="11.929" height="16.5" viewBox="0 0 11.929 16.5">
  <path id="_5a5d24610c199648f86afef7706b5428" data-name="5a5d24610c199648f86afef7706b5428" d="M11.714,8.857A3.429,3.429,0,1,0,8.286,5.429a3.429,3.429,0,0,0,3.429,3.429Zm0-5.714A2.286,2.286,0,1,1,9.429,5.429,2.286,2.286,0,0,1,11.714,3.143Zm0,6.857A5.714,5.714,0,0,0,6,15.714v1.714a.571.571,0,0,0,1.143,0V15.714a4.571,4.571,0,1,1,9.143,0v1.714a.571.571,0,1,0,1.143,0V15.714A5.714,5.714,0,0,0,11.714,10Z" transform="translate(-5.75 -1.75)" stroke-width="0.5"/>
</svg>
