<svg xmlns="http://www.w3.org/2000/svg" width="10" height="17.787" viewBox="0 0 10 17.787">
  <g id="stand" transform="translate(-14.01)">
    <circle id="Ellipse_4" data-name="Ellipse 4" cx="1.531" cy="1.531" r="1.531" transform="translate(17.479 0)" fill="#a4a9ac"/>
    <path id="Path_19" data-name="Path 19" d="M21.247,23.347V20.184h.186a.865.865,0,0,0,.864-.864V15.743a1.724,1.724,0,0,0-1.72-1.723H17.559a1.722,1.722,0,0,0-1.718,1.723V19.32a.865.865,0,0,0,.862.864h.231v3.127c-1.779.384-2.924,1.237-2.924,2.193,0,1.351,2.2,2.407,5,2.407s5-1.056,5-2.407C24.01,24.573,22.954,23.75,21.247,23.347Zm-4.313,1.067v.514a1.129,1.129,0,0,0,1.128,1.128h.067a1.131,1.131,0,0,0,.992-.589,1.168,1.168,0,0,0,.195.258,1.132,1.132,0,0,0,1.932-.8v-.447c.623.27.989.645.989,1.023,0,.778-1.479,1.434-3.227,1.434S15.78,26.282,15.78,25.5C15.78,25.087,16.208,24.687,16.934,24.414Z" transform="translate(0 -10.123)" fill="#a4a9ac"/>
  </g>
</svg>
