<svg xmlns="http://www.w3.org/2000/svg" width="12.603" height="12.015" viewBox="0 0 12.603 12.015">
  <path id="star-light" d="M14.593,7.27a.59.59,0,0,0-.5-.693l-3.589-.5L8.863,2.8a.492.492,0,0,0-.252-.252A.637.637,0,0,0,7.73,2.8L6.156,6.074l-3.589.5a.381.381,0,0,0-.378.189.609.609,0,0,0,0,.882l2.582,2.519-.63,3.589a.8.8,0,0,0,.063.378.637.637,0,0,0,.882.252l3.211-1.7,3.211,1.7a.472.472,0,0,0,.315.063h.126a.653.653,0,0,0,.5-.756l-.63-3.589L14.4,7.585A.346.346,0,0,0,14.593,7.27Z" transform="translate(-2 -2.459)" fill="#e6e8ea"/>
</svg>
