<svg xmlns="http://www.w3.org/2000/svg" width="24" height="24" viewBox="0 0 24 24">
  <g id="vitalSigns" transform="translate(-263 -445)">
    <g id="Rectangle_88" data-name="Rectangle 88" transform="translate(263 445)" fill="#fff" stroke="#e6e8ea" stroke-width="1">
      <rect width="24" height="24" rx="3" stroke="none"/>
      <rect x="0.5" y="0.5" width="23" height="23" rx="2.5" fill="none"/>
    </g>
    <g id="ec9d45d88693093e7c19fe4d1b8c0fbe" transform="translate(234.34 419)">
      <circle id="Ellipse_20" data-name="Ellipse 20" cx="0.239" cy="0.239" r="0.239" transform="translate(41.659 39.234)" fill="#2c8073" stroke="#2c8073" stroke-width="0.3"/>
      <circle id="Ellipse_21" data-name="Ellipse 21" cx="0.239" cy="0.239" r="0.239" transform="translate(41.659 39.978)" fill="#2c8073" stroke="#2c8073" stroke-width="0.3"/>
      <path id="Path_22" data-name="Path 22" d="M119.019,111.313h-.361a1.685,1.685,0,0,0-.358-1.365,1.529,1.529,0,0,0-2.131-.232l-.074.058-.074-.058a1.529,1.529,0,0,0-2.131.232,1.685,1.685,0,0,0-.355,1.384h-.364a.213.213,0,0,0,0,.425h.5a1.654,1.654,0,0,0,.335.466l0,0,1.937,1.785a.213.213,0,0,0,.288,0l1.937-1.785,0,0a1.655,1.655,0,0,0,.344-.485h.494a.213.213,0,1,0,0-.425Zm-4.8-1.094a1.106,1.106,0,0,1,1.541-.169l.2.16a.213.213,0,0,0,.262,0l.2-.16a1.106,1.106,0,0,1,1.541.169,1.261,1.261,0,0,1,.253,1.094H116.99a.213.213,0,0,0-.157.069l-.4.442-.667-1.061a.213.213,0,0,0-.332-.035l-.586.6h-.873A1.261,1.261,0,0,1,114.218,110.219Zm3.668,1.7-1.791,1.65-1.791-1.65a1.233,1.233,0,0,1-.137-.16h.765a.213.213,0,0,0,.152-.064l.46-.473.672,1.068a.213.213,0,0,0,.337.03l.53-.579h.953A1.234,1.234,0,0,1,117.886,111.917Zm-8.22-2.309h.5v.5a.213.213,0,1,0,.425,0v-.5h.5a.213.213,0,1,0,0-.425h-.5v-.5a.213.213,0,1,0-.425,0v.5h-.5a.213.213,0,0,0,0,.425Z" transform="translate(-72.806 -74.436)" fill="#2c8073" stroke="#2c8073" stroke-width="0.3"/>
      <path id="Path_23" data-name="Path 23" d="M41.9,40.812a.213.213,0,0,0-.213.213v.535h-6.6V32.585a.16.16,0,0,1,.159-.159h6.281a.16.16,0,0,1,.159.159v1.586a.213.213,0,0,0,.425,0V32.585A.585.585,0,0,0,41.526,32H35.245a.585.585,0,0,0-.585.585V43.322a.585.585,0,0,0,.585.585h6.281a.585.585,0,0,0,.585-.585v-2.3a.213.213,0,0,0-.213-.213Zm-.372,2.67H35.245a.16.16,0,0,1-.159-.159V41.985h6.6v1.337a.16.16,0,0,1-.159.159Z" fill="#2c8073" stroke="#2c8073" stroke-width="0.3"/>
      <path id="Path_24" data-name="Path 24" d="M77.917,86.255a.382.382,0,1,0,.383.382A.383.383,0,0,0,77.917,86.255ZM78.943,80.3v-2.72a.4.4,0,0,0-.4-.4H75.67a.4.4,0,0,0-.4.4V80.3a.4.4,0,0,0,.4.4h2.874a.4.4,0,0,0,.4-.4Zm-.425-.027H75.7V77.6h2.821v2.667Zm-1.96,1.445a.293.293,0,0,0-.292-.292h-.7a.293.293,0,0,0-.292.292v.749a.293.293,0,0,0,.292.292h.7a.293.293,0,0,0,.292-.292Zm-.425.616H75.7v-.483h.436Zm2.428-.616a.293.293,0,0,0-.292-.292h-.7a.293.293,0,0,0-.292.292v.749a.293.293,0,0,0,.292.292h.7a.293.293,0,0,0,.292-.292Zm-.425.616H77.7v-.483h.436Zm-1.87,1.148h-.7a.293.293,0,0,0-.292.292v.749a.293.293,0,0,0,.292.292h.7a.293.293,0,0,0,.292-.292v-.749A.293.293,0,0,0,76.265,83.481Zm-.133.908H75.7v-.483h.436Zm2.136-.908h-.7a.293.293,0,0,0-.292.292v.749a.293.293,0,0,0,.292.292h.7a.293.293,0,0,0,.292-.292v-.749A.293.293,0,0,0,78.268,83.481Zm-.133.908H77.7v-.483h.436Zm1.142.133a.293.293,0,0,0,.292.292h.7a.293.293,0,0,0,.292-.292v-.749a.293.293,0,0,0-.292-.292h-.7a.293.293,0,0,0-.292.292Zm.425-.616h.436v.483H79.7Z" transform="translate(-39.532 -43.978)" fill="#2c8073" stroke="#2c8073" stroke-width="0.3"/>
    </g>
  </g>
</svg>
