<svg id="whatsapp-btn" xmlns="http://www.w3.org/2000/svg" width="13.045" height="13.123" viewBox="0 0 13.045 13.123">
  <path d="M11.568,9.855c-.131-.066-.983-.459-1.114-.524a.309.309,0,0,0-.393.066c-.131.131-.393.524-.524.655-.066.131-.2.131-.328.066A5.357,5.357,0,0,1,7.9,9.331,7.543,7.543,0,0,1,6.98,8.217a.288.288,0,0,1,.066-.328c.066-.066.131-.2.262-.262a.5.5,0,0,0,.131-.262.2.2,0,0,0,0-.262,11.649,11.649,0,0,1-.524-1.18c-.066-.459-.2-.459-.328-.459H6.26a.747.747,0,0,0-.393.2,1.886,1.886,0,0,0-.59,1.376,3.433,3.433,0,0,0,.655,1.7,6.987,6.987,0,0,0,2.752,2.425,5.136,5.136,0,0,0,.917.328,1.872,1.872,0,0,0,1.049.066,1.7,1.7,0,0,0,1.114-.786,1.1,1.1,0,0,0,.066-.786l-.262-.131m1.638-5.963A6.532,6.532,0,0,0,2.917,11.756L2,15.1l3.473-.917a6.475,6.475,0,0,0,9.568-5.7,6.383,6.383,0,0,0-1.835-4.587m-1.769,9.174a5.5,5.5,0,0,1-2.883.852A5.747,5.747,0,0,1,5.8,13.2l-.2-.131-2.031.524L4.1,11.624l-.131-.2A5.5,5.5,0,0,1,5.735,3.892,5.331,5.331,0,0,1,13.14,5.6a5.407,5.407,0,0,1-1.7,7.471" transform="translate(-2 -1.975)"/>
</svg>
