<svg xmlns="http://www.w3.org/2000/svg" width="24" height="24" viewBox="0 0 24 24">
  <g id="billing" transform="translate(-263 -696)">
    <g id="Rectangle_90" data-name="Rectangle 90" transform="translate(263 696)" fill="#fff" stroke="#e6e8ea" stroke-width="1">
      <rect width="24" height="24" rx="3" stroke="none"/>
      <rect x="0.5" y="0.5" width="23" height="23" rx="2.5" fill="none"/>
    </g>
    <path id="a8e6a90595250528a137f27bdea69bfb" d="M7.121,5.533h3.533a.589.589,0,0,0,0-1.178H7.121a.589.589,0,0,0,0,1.178ZM5.944,7.888h4.71a.589.589,0,1,0,0-1.178H5.944a.589.589,0,1,0,0,1.178Zm0,2.355h4.71a.589.589,0,0,0,0-1.178H5.944a.589.589,0,1,0,0,1.178ZM13.009,2H3.589A.589.589,0,0,0,3,2.589v10.6a.589.589,0,0,0,.942.471l1.219-.913,1.213.913a.589.589,0,0,0,.707,0L8.3,12.745l1.219.913a.589.589,0,0,0,.707,0l1.213-.913,1.219.913a.59.59,0,0,0,.942-.471V2.589A.589.589,0,0,0,13.009,2ZM12.42,12.009l-.63-.471a.589.589,0,0,0-.707,0l-1.213.913-1.219-.913a.589.589,0,0,0-.707,0l-1.219.913-1.213-.913a.589.589,0,0,0-.707,0l-.63.471V3.178H12.42Z" transform="translate(267 700)" fill="#2c8073"/>
  </g>
</svg>
