<svg id="billingInvoice" xmlns="http://www.w3.org/2000/svg" width="14.4" height="16" viewBox="0 0 14.4 16">
  <path id="billingInvoice" d="M8.6,6.8h4.8a.8.8,0,1,0,0-1.6H8.6a.8.8,0,1,0,0,1.6ZM7,10h6.4a.8.8,0,1,0,0-1.6H7A.8.8,0,1,0,7,10Zm0,3.2h6.4a.8.8,0,1,0,0-1.6H7a.8.8,0,0,0,0,1.6ZM16.6,2H3.8a.8.8,0,0,0-.8.8V17.2a.8.8,0,0,0,1.28.64L5.936,16.6l1.648,1.24a.8.8,0,0,0,.96,0L10.2,16.6l1.656,1.24a.8.8,0,0,0,.96,0l1.648-1.24,1.656,1.24a.8.8,0,0,0,1.28-.64V2.8A.8.8,0,0,0,16.6,2Zm-.8,13.6-.856-.64a.8.8,0,0,0-.96,0L12.336,16.2,10.68,14.96a.8.8,0,0,0-.96,0L8.064,16.2,6.416,14.96a.8.8,0,0,0-.96,0L4.6,15.6V3.6H15.8Z" transform="translate(-3 -2)" />
</svg>
