<svg xmlns="http://www.w3.org/2000/svg" width="14.503" height="15.954" viewBox="0 0 14.503 15.954">
  <path id="calendarGreen" d="M9.252,14.053a.725.725,0,1,0-.725-.725A.725.725,0,0,0,9.252,14.053Zm3.626,0a.725.725,0,1,0-.725-.725A.725.725,0,0,0,12.877,14.053Zm0-2.9a.725.725,0,1,0-.725-.725A.725.725,0,0,0,12.877,11.152Zm-3.626,0a.725.725,0,1,0-.725-.725A.725.725,0,0,0,9.252,11.152Zm5.076-8.7H13.6V1.725a.725.725,0,0,0-1.45,0V2.45h-5.8V1.725a.725.725,0,1,0-1.45,0V2.45H4.175A2.175,2.175,0,0,0,2,4.626V14.778a2.175,2.175,0,0,0,2.175,2.175H14.328A2.175,2.175,0,0,0,16.5,14.778V4.626A2.175,2.175,0,0,0,14.328,2.45Zm.725,12.328a.725.725,0,0,1-.725.725H4.175a.725.725,0,0,1-.725-.725V8.252h11.6Zm0-7.977H3.45V4.626A.725.725,0,0,1,4.175,3.9H4.9v.725a.725.725,0,0,0,1.45,0V3.9h5.8v.725a.725.725,0,0,0,1.45,0V3.9h.725a.725.725,0,0,1,.725.725ZM5.626,11.152a.725.725,0,1,0-.725-.725A.725.725,0,0,0,5.626,11.152Zm0,2.9a.725.725,0,1,0-.725-.725A.725.725,0,0,0,5.626,14.053Z" transform="translate(-2 -1)" fill="#2c8073"/>
</svg>
