<svg xmlns="http://www.w3.org/2000/svg" width="24" height="24" viewBox="0 0 24 24">
  <g id="diagnosis" transform="translate(-263 -636)">
    <g id="diagnosis-2" data-name="diagnosis" transform="translate(263 636)" fill="#fff" stroke="#e6e8ea" stroke-width="1">
      <rect width="24" height="24" rx="3" stroke="none"/>
      <rect x="0.5" y="0.5" width="23" height="23" rx="2.5" fill="none"/>
    </g>
    <g id="XMLID_74_" transform="translate(232 641.898)">
      <path id="XMLID_170_" d="M345.266,68.685h1.27L345,67.2v1.253A.259.259,0,0,0,345.266,68.685Z" transform="translate(-299.5 -65.461)" fill="none"/>
      <path id="XMLID_174_" d="M84.789,43.225a1.228,1.228,0,0,1-1.243-1.212v-1.9L78.254,40.1a.257.257,0,0,0-.254.244V50.4a.273.273,0,0,0,.266.249h8.282a.235.235,0,0,0,.222-.249v-7.18Zm-.877,1.93a.489.489,0,1,1,0,.977H79.637a.489.489,0,0,1,0-.977Zm-4.3-1.954h2.834a.489.489,0,1,1,0,.977H79.612a.489.489,0,0,1,0-.977Zm5.521,4.886h-5.5a.489.489,0,0,1,0-.977h5.5a.489.489,0,0,1,0,.977Z" transform="translate(-39.023 -39.023)" fill="none"/>
      <path id="XMLID_488_" d="M48.485,3.269,45.512.391a.982.982,0,0,0-.682-.276L39.231.1A1.227,1.227,0,0,0,38,1.321v10.06a1.251,1.251,0,0,0,1.243,1.224h8.282a1.214,1.214,0,0,0,1.2-1.226V3.852A.8.8,0,0,0,48.485,3.269ZM45.5,1.739l1.537,1.485h-1.27A.259.259,0,0,1,45.5,2.99Zm2.025,9.889H39.243a.271.271,0,0,1-.266-.249V1.321a.257.257,0,0,1,.254-.244l5.291.015v1.9A1.23,1.23,0,0,0,45.766,4.2h1.981v7.177A.235.235,0,0,1,47.525,11.628Z" transform="translate(0)" fill="#2c8073"/>
      <path id="XMLID_490_" d="M125,247.489a.49.49,0,0,0,.489.489h4.275a.489.489,0,0,0,0-.977h-4.275A.49.49,0,0,0,125,247.489Z" transform="translate(-84.875 -240.868)" fill="#2c8073"/>
      <path id="XMLID_491_" d="M124.489,167.977h2.834a.489.489,0,1,0,0-.977h-2.834a.489.489,0,1,0,0,.977Z" transform="translate(-83.899 -162.823)" fill="#2c8073"/>
      <path id="XMLID_492_" d="M130.985,327h-5.5a.489.489,0,1,0,0,.977h5.5a.489.489,0,1,0,0-.977Z" transform="translate(-84.875 -318.914)" fill="#2c8073"/>
    </g>
  </g>
</svg>
