<svg xmlns="http://www.w3.org/2000/svg" width="11.152" height="15.152" viewBox="0 0 11.152 15.152">
  <path id="diagnosisLight" d="M19.2,3.8H17.6A1.939,1.939,0,0,0,15.673,2h-.354A1.94,1.94,0,0,0,13.39,3.8h-1.6A1.871,1.871,0,0,0,9.92,5.664v9.617a1.871,1.871,0,0,0,1.871,1.871H19.2a1.871,1.871,0,0,0,1.871-1.871V5.664A1.871,1.871,0,0,0,19.2,3.8Zm-3.882-.838h.354a.985.985,0,0,1,.97.838H14.35A.985.985,0,0,1,15.319,2.957ZM13.862,4.75h4.546a1.321,1.321,0,0,1-1.227.838H13.809a1.321,1.321,0,0,1-1.227-.838Zm6.253,10.531a.914.914,0,0,1-.914.914H11.791a.914.914,0,0,1-.914-.914V5.664a.914.914,0,0,1,.715-.886,2.273,2.273,0,0,0,2.217,1.768h3.374A2.273,2.273,0,0,0,19.4,4.778a.914.914,0,0,1,.715.891Z" transform="translate(-9.92 -2)" fill="#fff"/>
</svg>
