<svg xmlns="http://www.w3.org/2000/svg" width="8.711" height="10.889" viewBox="0 0 8.711 10.889">
  <path id="download-success" d="M12.711,5.778a.713.713,0,0,0-.033-.147V5.582a.583.583,0,0,0-.1-.152h0L9.308,2.163h0a.583.583,0,0,0-.152-.1H9.1A.6.6,0,0,0,8.933,2h-3.3A1.633,1.633,0,0,0,4,3.633v7.622a1.633,1.633,0,0,0,1.633,1.633h5.444a1.633,1.633,0,0,0,1.633-1.633V5.778ZM9.444,3.857l1.41,1.41H9.989a.544.544,0,0,1-.544-.544Zm2.178,7.4a.544.544,0,0,1-.544.544H5.633a.544.544,0,0,1-.544-.544V3.633a.544.544,0,0,1,.544-.544H8.355V4.722A1.633,1.633,0,0,0,9.989,6.355h1.633ZM9.058,8.691,8.9,8.854V7.444a.544.544,0,0,0-1.089,0v1.41l-.158-.163a.547.547,0,0,0-.773.773l1.089,1.089a.544.544,0,0,0,.18.114.512.512,0,0,0,.414,0,.544.544,0,0,0,.18-.114L9.831,9.464a.547.547,0,1,0-.773-.773Z" transform="translate(-4 -2)" fill="#2c8073"/>
</svg>
