<svg id="edit-success" xmlns="http://www.w3.org/2000/svg" width="10.002" height="10.607" viewBox="0 0 10.002 10.607">
  <path id="edit-success" d="M3.5,10.481h2.12a.486.486,0,0,0,.355-.154L9.436,6.653h0l1.42-1.474a.553.553,0,0,0,0-.753L8.736,2.151a.48.48,0,0,0-.71,0l-1.41,1.5h0L3.145,7.326A.547.547,0,0,0,3,7.7V9.95A.516.516,0,0,0,3.5,10.481ZM8.381,3.275,9.8,4.776l-.71.753-1.415-1.5ZM4,7.92,6.966,4.776l1.415,1.5L5.416,9.42H4Zm7.5,3.621h-9a.531.531,0,0,0,0,1.06h9a.531.531,0,0,0,0-1.06Z" transform="translate(-2 -1.994)"/>
</svg>
