<svg id="email-btn" xmlns="http://www.w3.org/2000/svg" width="15.394" height="11.213" viewBox="0 0 15.394 11.213">
  <path d="M13.66,4.71H2.735A2.237,2.237,0,0,0,.5,6.945v6.744a2.237,2.237,0,0,0,2.235,2.235H13.66a2.237,2.237,0,0,0,2.235-2.235V6.945A2.237,2.237,0,0,0,13.66,4.71ZM13,6.2l-.685.541L8.659,9.626a.746.746,0,0,1-.924,0L4.21,6.84,3.4,6.2H13Zm.66,8.234H2.735a.746.746,0,0,1-.745-.745v-6.7L6.812,10.8a2.233,2.233,0,0,0,2.771,0l4.822-3.8v6.7A.746.746,0,0,1,13.66,14.433Z" transform="translate(-0.5 -4.71)"/>
</svg>
