<svg id="overview" xmlns="http://www.w3.org/2000/svg" width="15.954" height="15.954" viewBox="0 0 15.954 15.954">
  <path id="_79ab817da858b03208c4f540e768ed71" data-name="79ab817da858b03208c4f540e768ed71" d="M10.99,8h1.1c.387,0,.7,0,.953.017a2.213,2.213,0,0,1,.711.146A2.146,2.146,0,0,1,14.92,9.325a2.214,2.214,0,0,1,.146.711c.017.254.017.566.017.953v1.1c0,.387,0,.7-.017.953a2.214,2.214,0,0,1-.146.711,2.146,2.146,0,0,1-1.162,1.162,2.214,2.214,0,0,1-.711.146c-.254.017-.566.017-.953.017h-1.1c-.387,0-.7,0-.953-.017a2.214,2.214,0,0,1-.711-.146,2.146,2.146,0,0,1-1.162-1.162,2.213,2.213,0,0,1-.146-.711C8,12.793,8,12.48,8,12.093v-1.1c0-.387,0-.7.017-.953a2.213,2.213,0,0,1,.146-.711A2.146,2.146,0,0,1,9.325,8.163a2.213,2.213,0,0,1,.711-.146C10.29,8,10.6,8,10.99,8Zm-.9.874a1.384,1.384,0,0,0-.441.083,1.288,1.288,0,0,0-.7.7,1.384,1.384,0,0,0-.083.441c-.015.221-.015.5-.015.91v1.073c0,.406,0,.689.015.91a1.384,1.384,0,0,0,.083.441,1.288,1.288,0,0,0,.7.7,1.384,1.384,0,0,0,.441.083c.221.015.5.015.91.015h1.073c.406,0,.689,0,.91-.015a1.385,1.385,0,0,0,.441-.083,1.288,1.288,0,0,0,.7-.7,1.385,1.385,0,0,0,.083-.441c.015-.221.015-.5.015-.91V11c0-.406,0-.689-.015-.91a1.384,1.384,0,0,0-.083-.441,1.288,1.288,0,0,0-.7-.7,1.384,1.384,0,0,0-.441-.083c-.221-.015-.5-.015-.91-.015H11C10.6,8.859,10.316,8.859,10.095,8.874Zm.9,7.5h1.1c.387,0,.7,0,.953.017a2.214,2.214,0,0,1,.711.146A2.146,2.146,0,0,1,14.92,17.7a2.214,2.214,0,0,1,.146.711c.017.254.017.566.017.953v1.1c0,.387,0,.7-.017.953a2.214,2.214,0,0,1-.146.711,2.146,2.146,0,0,1-1.162,1.162,2.214,2.214,0,0,1-.711.146c-.254.017-.566.017-.953.017h-1.1c-.387,0-.7,0-.953-.017a2.214,2.214,0,0,1-.711-.146,2.146,2.146,0,0,1-1.162-1.162,2.213,2.213,0,0,1-.146-.711C8,21.163,8,20.851,8,20.464v-1.1c0-.387,0-.7.017-.953a2.213,2.213,0,0,1,.146-.711,2.146,2.146,0,0,1,1.162-1.162,2.214,2.214,0,0,1,.711-.146C10.29,16.371,10.6,16.371,10.99,16.371Zm-.9.874a1.384,1.384,0,0,0-.441.083,1.288,1.288,0,0,0-.7.7,1.384,1.384,0,0,0-.083.441c-.015.221-.015.5-.015.91v1.073c0,.406,0,.689.015.91a1.384,1.384,0,0,0,.083.441,1.288,1.288,0,0,0,.7.7,1.384,1.384,0,0,0,.441.083c.221.015.5.015.91.015h1.073c.406,0,.689,0,.91-.015a1.384,1.384,0,0,0,.441-.083,1.288,1.288,0,0,0,.7-.7,1.385,1.385,0,0,0,.083-.441c.015-.221.015-.5.015-.91V19.376c0-.406,0-.689-.015-.91a1.384,1.384,0,0,0-.083-.441,1.288,1.288,0,0,0-.7-.7,1.384,1.384,0,0,0-.441-.083c-.221-.015-.5-.015-.91-.015H11C10.6,17.229,10.316,17.229,10.095,17.245ZM19.36,8h1.1c.387,0,.7,0,.953.017a2.213,2.213,0,0,1,.711.146A2.146,2.146,0,0,1,23.29,9.325a2.214,2.214,0,0,1,.146.711c.017.254.017.566.017.953v1.1c0,.387,0,.7-.017.953a2.214,2.214,0,0,1-.146.711,2.146,2.146,0,0,1-1.162,1.162,2.214,2.214,0,0,1-.711.146c-.254.017-.566.017-.953.017h-1.1c-.387,0-.7,0-.953-.017a2.214,2.214,0,0,1-.711-.146,2.146,2.146,0,0,1-1.162-1.162,2.214,2.214,0,0,1-.146-.711c-.017-.254-.017-.566-.017-.953v-1.1c0-.387,0-.7.017-.953a2.214,2.214,0,0,1,.146-.711A2.146,2.146,0,0,1,17.7,8.163a2.213,2.213,0,0,1,.711-.146C18.661,8,18.973,8,19.36,8Zm-.9.874a1.384,1.384,0,0,0-.441.083,1.288,1.288,0,0,0-.7.7,1.384,1.384,0,0,0-.083.441c-.015.221-.015.5-.015.91v1.073c0,.406,0,.689.015.91a1.384,1.384,0,0,0,.083.441,1.288,1.288,0,0,0,.7.7,1.384,1.384,0,0,0,.441.083c.221.015.5.015.91.015h1.073c.406,0,.689,0,.91-.015a1.385,1.385,0,0,0,.441-.083,1.288,1.288,0,0,0,.7-.7,1.384,1.384,0,0,0,.083-.441c.015-.221.015-.5.015-.91V11c0-.406,0-.689-.015-.91a1.384,1.384,0,0,0-.083-.441,1.288,1.288,0,0,0-.7-.7,1.384,1.384,0,0,0-.441-.083c-.221-.015-.5-.015-.91-.015H19.376C18.97,8.859,18.687,8.859,18.465,8.874Zm.9,7.5h1.1c.387,0,.7,0,.953.017a2.214,2.214,0,0,1,.711.146A2.146,2.146,0,0,1,23.29,17.7a2.214,2.214,0,0,1,.146.711c.017.254.017.566.017.953v1.1c0,.387,0,.7-.017.953a2.214,2.214,0,0,1-.146.711,2.146,2.146,0,0,1-1.162,1.162,2.214,2.214,0,0,1-.711.146c-.254.017-.566.017-.953.017h-1.1c-.387,0-.7,0-.953-.017a2.214,2.214,0,0,1-.711-.146,2.146,2.146,0,0,1-1.162-1.162,2.214,2.214,0,0,1-.146-.711c-.017-.254-.017-.566-.017-.953v-1.1c0-.387,0-.7.017-.953a2.214,2.214,0,0,1,.146-.711A2.146,2.146,0,0,1,17.7,16.534a2.214,2.214,0,0,1,.711-.146C18.661,16.371,18.973,16.371,19.36,16.371Zm-.9.874a1.384,1.384,0,0,0-.441.083,1.288,1.288,0,0,0-.7.7,1.384,1.384,0,0,0-.083.441c-.015.221-.015.5-.015.91v1.073c0,.406,0,.689.015.91a1.384,1.384,0,0,0,.083.441,1.288,1.288,0,0,0,.7.7,1.384,1.384,0,0,0,.441.083c.221.015.5.015.91.015h1.073c.406,0,.689,0,.91-.015A1.384,1.384,0,0,0,21.8,22.5a1.288,1.288,0,0,0,.7-.7,1.384,1.384,0,0,0,.083-.441c.015-.221.015-.5.015-.91V19.376c0-.406,0-.689-.015-.91a1.384,1.384,0,0,0-.083-.441,1.288,1.288,0,0,0-.7-.7,1.384,1.384,0,0,0-.441-.083c-.221-.015-.5-.015-.91-.015H19.376C18.97,17.229,18.687,17.229,18.465,17.245Z" transform="translate(-7.75 -7.75)" stroke-width="0.5" fill-rule="evenodd"/>
</svg>
