<svg xmlns="http://www.w3.org/2000/svg" width="24" height="24" viewBox="0 0 24 24">
  <g id="prescription" transform="translate(-263 -473)">
    <g id="prescription-2" data-name="prescription" transform="translate(263 473)" fill="#fff" stroke="#e6e8ea" stroke-width="1">
      <rect width="24" height="24" rx="3" stroke="none"/>
      <rect x="0.5" y="0.5" width="23" height="23" rx="2.5" fill="none"/>
    </g>
    <path id="b2995782b2db3ee0f452dce43a693db7" d="M14.468,4.043a3.558,3.558,0,0,0-5.032,0L4.043,9.436a3.558,3.558,0,1,0,5.032,5.032l5.393-5.394A3.558,3.558,0,0,0,14.468,4.043Zm-6.38,9.445a2.231,2.231,0,0,1-3.065,0,2.175,2.175,0,0,1,0-3.065l2.21-2.21L10.3,11.278Zm5.4-5.4-2.21,2.21L8.213,7.233l2.21-2.21a2.168,2.168,0,0,1,3.065,3.065Z" transform="translate(266 476)" fill="#2c8073"/>
  </g>
</svg>
