<svg xmlns="http://www.w3.org/2000/svg" width="10" height="10" viewBox="0 0 10 10">
  <path id="print" d="M4.5,6a.5.5,0,1,0,.5.5A.5.5,0,0,0,4.5,6Zm6-2H10V2.5A.5.5,0,0,0,9.5,2h-5a.5.5,0,0,0-.5.5V4H3.5A1.5,1.5,0,0,0,2,5.5v3A1.5,1.5,0,0,0,3.5,10H4v1.5a.5.5,0,0,0,.5.5h5a.5.5,0,0,0,.5-.5V10h.5A1.5,1.5,0,0,0,12,8.5v-3A1.5,1.5,0,0,0,10.5,4ZM5,3H9V4H5Zm4,8H5V9H9Zm2-2.5a.5.5,0,0,1-.5.5H10V8.5A.5.5,0,0,0,9.5,8h-5a.5.5,0,0,0-.5.5V9H3.5A.5.5,0,0,1,3,8.5v-3A.5.5,0,0,1,3.5,5h7a.5.5,0,0,1,.5.5Z" transform="translate(-2 -2)" fill="#2c8073"/>
</svg>
