<svg id="rupee" xmlns="http://www.w3.org/2000/svg" width="9.428" height="16.5" viewBox="0 0 9.428 16.5">
  <path id="rupee" d="M16,11.179A1.179,1.179,0,0,1,17.179,10H24.25a1.179,1.179,0,0,1,0,2.357H22.441a4.687,4.687,0,0,1,.482,1.179H24.25a1.179,1.179,0,0,1,0,2.357H22.923a4.721,4.721,0,0,1-3.607,3.438l3.558,5.337a1.179,1.179,0,0,1-1.961,1.307L16.2,18.9a1.179,1.179,0,0,1,.981-1.832h1.179A2.356,2.356,0,0,0,20.4,15.893h-3.22a1.179,1.179,0,0,1,0-2.357H20.4a2.356,2.356,0,0,0-2.042-1.179H17.179A1.179,1.179,0,0,1,16,11.179Z" transform="translate(-16 -10)" fill-rule="evenodd"/>
</svg>
