<svg xmlns="http://www.w3.org/2000/svg" width="9.148" height="16.01" viewBox="0 0 9.148 16.01">
  <path id="rupee-success" d="M16,11.144A1.144,1.144,0,0,1,17.144,10H24a1.144,1.144,0,1,1,0,2.287H22.249a4.548,4.548,0,0,1,.468,1.144H24a1.144,1.144,0,1,1,0,2.287H22.717a4.581,4.581,0,0,1-3.5,3.336l3.452,5.178a1.144,1.144,0,1,1-1.9,1.269l-4.574-6.861a1.144,1.144,0,0,1,.952-1.778h1.144a2.286,2.286,0,0,0,1.981-1.144H17.144a1.144,1.144,0,1,1,0-2.287h3.125a2.286,2.286,0,0,0-1.981-1.144H17.144A1.144,1.144,0,0,1,16,11.144Z" transform="translate(-16 -10)" fill="#2c8073" fill-rule="evenodd"/>
</svg>
