<svg id="schedules" xmlns="http://www.w3.org/2000/svg" width="19.504" height="19.504" viewBox="0 0 19.504 19.504">
  <path id="Path_30" data-name="Path 30" d="M0,0H19.5V19.5H0Z" fill="none"/>
  <path id="Path_31" data-name="Path 31" d="M10.119,2a8.127,8.127,0,1,0,8.135,8.127A8.123,8.123,0,0,0,10.119,2Zm.008,14.628a6.5,6.5,0,1,1,6.5-6.5A6.5,6.5,0,0,1,10.127,16.628ZM9.948,6.063H9.9a.583.583,0,0,0-.585.585v3.836a.8.8,0,0,0,.4.7l3.373,2.024a.581.581,0,1,0,.593-1l-3.145-1.869V6.648a.583.583,0,0,0-.585-.585Z" transform="translate(-0.375 -0.375)" />
</svg>
