<svg xmlns="http://www.w3.org/2000/svg" width="11.876" height="11.322" viewBox="0 0 11.876 11.322">
  <path id="star-yellow" d="M13.867,6.993a.556.556,0,0,0-.475-.653L10.01,5.865,8.467,2.78a.463.463,0,0,0-.237-.237A.6.6,0,0,0,7.4,2.78L5.916,5.865,2.534,6.34a.359.359,0,0,0-.356.178.574.574,0,0,0,0,.831L4.611,9.722,4.017,13.1a.753.753,0,0,0,.059.356.6.6,0,0,0,.831.237l3.026-1.6,3.026,1.6a.445.445,0,0,0,.3.059h.119a.615.615,0,0,0,.475-.712l-.593-3.382,2.433-2.373A.326.326,0,0,0,13.867,6.993Z" transform="translate(-2 -2.459)" fill="#f8b84e"/>
</svg>
