<svg xmlns="http://www.w3.org/2000/svg" width="14.742" height="14.742" viewBox="0 0 14.742 14.742">
  <path id="tabl-btn-plus-dark" d="M10.806,0a3.57,3.57,0,0,1,3.936,3.929h0v6.884a3.571,3.571,0,0,1-3.929,3.929H3.929A3.568,3.568,0,0,1,0,10.813H0V3.929A3.561,3.561,0,0,1,3.929,0h6.877ZM7.364,4.061a.61.61,0,0,0-.612.612h0V6.752H4.666a.6.6,0,0,0-.612.612.621.621,0,0,0,.612.619H6.752v2.086a.612.612,0,1,0,1.224,0h0V7.983h2.093a.621.621,0,0,0,.612-.619.61.61,0,0,0-.612-.612H7.976V4.673A.61.61,0,0,0,7.364,4.061Z" transform="translate(0 0)" fill="#61656a"/>
</svg>
