<svg xmlns="http://www.w3.org/2000/svg" width="14.245" height="14.242" viewBox="0 0 14.245 14.242">
  <g id="tagSuccess" transform="translate(-3.122 -3.129)">
    <path id="Path_51" data-name="Path 51" d="M16.812,4.094a.434.434,0,0,0-.4-.409l-5.6-.554a.431.431,0,0,0-.349.125l-6.6,6.6c-.99.99-.99,1.594,0,2.584l4.189,4.19a1.935,1.935,0,0,0,1.292.739,1.934,1.934,0,0,0,1.291-.739l6.6-6.6a.433.433,0,0,0,.125-.349ZM10.025,16.019c-.208.208-.505.485-.679.485s-.471-.277-.68-.485l-4.189-4.19c-.648-.647-.648-.711,0-1.359l6.457-6.457,5.048.5.5,5.048-6.458,6.458Z" transform="translate(0)" fill="#2c8073"/>
    <path id="Path_52" data-name="Path 52" d="M15.347,27.267l-1.969,1.969c-.5.5-.634.834-.064,1.4a.217.217,0,1,0,.306-.306c-.339-.339-.335-.391.064-.791l1.969-1.969a.217.217,0,1,0-.306-.306Z" transform="translate(-7.693 -18.859)" fill="#2c8073"/>
    <path id="Path_53" data-name="Path 53" d="M26.022,24.419l-.176.176a.217.217,0,0,0,.307.306l.176-.176a.217.217,0,0,0-.307-.306Z" transform="translate(-17.752 -16.628)" fill="#2c8073"/>
    <path id="Path_54" data-name="Path 54" d="M44.108,12.862a1.8,1.8,0,1,0,1.8,1.8A1.8,1.8,0,0,0,44.108,12.862Zm0,2.726a.93.93,0,1,1,.93-.93.931.931,0,0,1-.93.93Z" transform="translate(-30.7 -7.625)" fill="#2c8073"/>
  </g>
</svg>
