<svg xmlns="http://www.w3.org/2000/svg" width="10.946" height="14.274" viewBox="0 0 10.946 14.274">
  <path id="trash-red" d="M16.663,8.42l-.23,6.958a2.292,2.292,0,0,1-2.3,2.217H9.767a2.292,2.292,0,0,1-2.3-2.214L7.238,8.42a.575.575,0,0,1,1.149-.038l.23,6.96a1.149,1.149,0,0,0,1.149,1.105h4.368a1.149,1.149,0,0,0,1.149-1.108l.23-6.958a.575.575,0,1,1,1.149.038Zm.76-2.316a.575.575,0,0,1-.575.575h-9.8a.575.575,0,1,1,0-1.149H8.834a.733.733,0,0,0,.732-.66,1.719,1.719,0,0,1,1.715-1.548H12.62A1.719,1.719,0,0,1,14.335,4.87a.733.733,0,0,0,.732.66h1.782a.575.575,0,0,1,.575.575Zm-6.86-.575h2.775a1.9,1.9,0,0,1-.147-.543.575.575,0,0,0-.571-.517H11.282a.575.575,0,0,0-.571.517,1.9,1.9,0,0,1-.147.543Zm.579,8.708V9.344a.575.575,0,1,0-1.149,0v4.9a.575.575,0,1,0,1.149,0Zm2.767,0V9.344a.575.575,0,0,0-1.149,0v4.9a.575.575,0,1,0,1.149,0Z" transform="translate(-6.478 -3.322)" fill="#e61010"/>
</svg>
