<svg xmlns="http://www.w3.org/2000/svg" width="13" height="9.75" viewBox="0 0 13 9.75">
  <g id="view" transform="translate(0 -3)">
    <path id="Path_20" data-name="Path 20" d="M12.951,7.649C11.886,5.335,9.479,3,6.5,3S1.114,5.335.049,7.649a.546.546,0,0,0,0,.453C1.114,10.415,3.521,12.75,6.5,12.75s5.386-2.335,6.451-4.649A.546.546,0,0,0,12.951,7.649ZM6.5,11.667c-2.389,0-4.412-1.924-5.357-3.792C2.088,6.007,4.111,4.083,6.5,4.083s4.412,1.924,5.357,3.792c-.945,1.868-2.968,3.792-5.357,3.792Z" transform="translate(0)" fill="#fff"/>
    <path id="Path_21" data-name="Path 21" d="M9.708,7a2.708,2.708,0,1,0,2.708,2.708A2.708,2.708,0,0,0,9.708,7Zm0,4.333a1.625,1.625,0,1,1,1.625-1.625A1.625,1.625,0,0,1,9.708,11.333Z" transform="translate(-3.208 -1.833)" fill="#fff"/>
  </g>
</svg>
